<svg width="22" height="22" viewBox="0 0 22 22" fill="none" xmlns="http://www.w3.org/2000/svg">
<path d="M19.2681 17.4167L17.8014 5.13337H15.0973C14.7764 3.25421 13.0806 1.83337 11.0181 1.83337C8.95559 1.83337 7.25976 3.25421 6.93893 5.13337H4.23476L2.76809 17.4167C2.67643 18.1042 2.95143 18.5167 3.18059 18.7917C3.40976 19.0209 3.82226 19.3417 4.60143 19.3417H17.4348C18.0306 19.3417 18.5348 19.1584 18.8556 18.7459C19.1764 18.425 19.3139 17.9209 19.2681 17.4167ZM11.0181 3.66671C12.0264 3.66671 12.8973 4.30837 13.1723 5.13337H8.81809C9.13893 4.26254 10.0098 3.66671 11.0181 3.66671ZM4.60143 17.5084L5.88476 6.96671H6.89309V8.34171C6.89309 8.84587 7.30559 9.25838 7.80976 9.25838C8.31393 9.25838 8.72643 8.84587 8.72643 8.34171V6.96671H13.3098V8.34171C13.3098 8.84587 13.7223 9.25838 14.2264 9.25838C14.7306 9.25838 15.1431 8.84587 15.1431 8.34171V6.96671H16.1514L17.4348 17.5084H4.60143Z" fill="#3A3A3A"/>
</svg>
