<svg width="22" height="22" viewBox="0 0 22 22" fill="none" xmlns="http://www.w3.org/2000/svg">
<path fill-rule="evenodd" clip-rule="evenodd" d="M13.2155 4.15512C11.9931 3.06177 10.3985 2.47797 8.75911 2.52361C7.11973 2.56924 5.56006 3.24086 4.4004 4.40052C3.24074 5.56018 2.56912 7.11986 2.52348 8.75923C2.47785 10.3986 3.06165 11.9932 4.155 13.2156C5.24835 14.438 6.76825 15.1953 8.40254 15.3321C9.96882 15.4632 11.5262 15.0147 12.781 14.0761L17.9136 19.2113C18.0856 19.3834 18.319 19.48 18.5624 19.48C18.8057 19.48 19.0391 19.3834 19.2112 19.2113C19.3832 19.0392 19.4799 18.8058 19.4799 18.5625C19.4799 18.3191 19.3832 18.0857 19.2111 17.9137L14.0765 12.7804C15.0148 11.5257 15.463 9.96862 15.332 8.40266C15.1952 6.76837 14.4379 5.24847 13.2155 4.15512ZM7.1834 4.70304C7.73948 4.47271 8.33548 4.35416 8.93737 4.35416C9.53926 4.35416 10.1353 4.47271 10.6913 4.70304C11.2474 4.93338 11.7527 5.27098 12.1783 5.69658C12.6039 6.12219 12.9415 6.62745 13.1718 7.18352C13.4022 7.7396 13.5207 8.3356 13.5207 8.93749C13.5207 10.1531 13.0378 11.3189 12.1783 12.1784C11.3187 13.0379 10.1529 13.5208 8.93737 13.5208C7.72179 13.5208 6.556 13.0379 5.69646 12.1784C4.83692 11.3189 4.35403 10.1531 4.35403 8.93749C4.35403 8.3356 4.47259 7.7396 4.70292 7.18352C4.93325 6.62745 5.27086 6.12219 5.69646 5.69658C6.12206 5.27098 6.62733 4.93338 7.1834 4.70304Z" fill="#3A3A3A"/>
</svg>
