<svg width="16" height="17" viewBox="0 0 16 17" fill="none" xmlns="http://www.w3.org/2000/svg">
<g clip-path="url(#clip0)">
<path d="M0 3.43559C0 3.30543 0.0517059 3.1806 0.143743 3.08857C0.23578 2.99653 0.360609 2.94482 0.490769 2.94482H1.96308C2.07255 2.94485 2.17887 2.98149 2.26513 3.04889C2.35139 3.1163 2.41263 3.21061 2.43912 3.31683L2.83665 4.9079H14.2323C14.3069 4.90792 14.3804 4.92492 14.4474 4.95762C14.5144 4.99031 14.5731 5.03784 14.619 5.09659C14.6648 5.15534 14.6967 5.22378 14.7122 5.2967C14.7277 5.36962 14.7264 5.44511 14.7084 5.51744L13.236 11.4067C13.2096 11.5129 13.1483 11.6072 13.0621 11.6746C12.9758 11.742 12.8695 11.7786 12.76 11.7787H3.92615C3.81668 11.7786 3.71036 11.742 3.6241 11.6746C3.53785 11.6072 3.4766 11.5129 3.45011 11.4067L1.58028 3.92636H0.490769C0.360609 3.92636 0.23578 3.87466 0.143743 3.78262C0.0517059 3.69058 0 3.56575 0 3.43559ZM3.08203 5.88944L4.30895 10.7971H12.3772L13.6041 5.88944H3.08203ZM4.90769 13.7417C4.64737 13.7417 4.39771 13.8452 4.21364 14.0292C4.02957 14.2133 3.92615 14.463 3.92615 14.7233C3.92615 14.9836 4.02957 15.2333 4.21364 15.4173C4.39771 15.6014 4.64737 15.7048 4.90769 15.7048C5.16801 15.7048 5.41767 15.6014 5.60174 15.4173C5.78582 15.2333 5.88923 14.9836 5.88923 14.7233C5.88923 14.463 5.78582 14.2133 5.60174 14.0292C5.41767 13.8452 5.16801 13.7417 4.90769 13.7417ZM2.94462 14.7233C2.94462 14.2026 3.15144 13.7033 3.51959 13.3352C3.88774 12.967 4.38705 12.7602 4.90769 12.7602C5.42833 12.7602 5.92765 12.967 6.2958 13.3352C6.66395 13.7033 6.87077 14.2026 6.87077 14.7233C6.87077 15.2439 6.66395 15.7432 6.2958 16.1114C5.92765 16.4795 5.42833 16.6864 4.90769 16.6864C4.38705 16.6864 3.88774 16.4795 3.51959 16.1114C3.15144 15.7432 2.94462 15.2439 2.94462 14.7233ZM11.7785 13.7417C11.5181 13.7417 11.2685 13.8452 11.0844 14.0292C10.9003 14.2133 10.7969 14.463 10.7969 14.7233C10.7969 14.9836 10.9003 15.2333 11.0844 15.4173C11.2685 15.6014 11.5181 15.7048 11.7785 15.7048C12.0388 15.7048 12.2884 15.6014 12.4725 15.4173C12.6566 15.2333 12.76 14.9836 12.76 14.7233C12.76 14.463 12.6566 14.2133 12.4725 14.0292C12.2884 13.8452 12.0388 13.7417 11.7785 13.7417ZM9.81538 14.7233C9.81538 14.2026 10.0222 13.7033 10.3904 13.3352C10.7585 12.967 11.2578 12.7602 11.7785 12.7602C12.2991 12.7602 12.7984 12.967 13.1666 13.3352C13.5347 13.7033 13.7415 14.2026 13.7415 14.7233C13.7415 15.2439 13.5347 15.7432 13.1666 16.1114C12.7984 16.4795 12.2991 16.6864 11.7785 16.6864C11.2578 16.6864 10.7585 16.4795 10.3904 16.1114C10.0222 15.7432 9.81538 15.2439 9.81538 14.7233Z" fill="#9A6D6D"/>
</g>
<defs>
<clipPath id="clip0">
<rect width="15.7046" height="15.7046" fill="white" transform="translate(0 0.981689)"/>
</clipPath>
</defs>
</svg>
